HIERARCHY
ROOT Hips
{
  OFFSET -10.0563 7.73376 -472.55
  CHANNELS 6 Xposition Yposition Zposition Zrotation Xrotation Yrotation
  JOINT Spine
  {
    OFFSET 0 0 0
    CHANNELS 3 Zrotation Xrotation Yrotation
    JOINT Spine1
    {
      OFFSET 19 0 0
      CHANNELS 3 Zrotation Xrotation Yrotation
      JOINT Neck
      {
        OFFSET 22.5 0.6 0
        CHANNELS 3 Zrotation Xrotation Yrotation
        JOINT Head
        {
          OFFSET 14 0.0308777 0
          CHANNELS 3 Zrotation Xrotation Yrotation
          End Site
          {
            OFFSET 17 0 0
          }
        }
      }
      JOINT LeftShoulder
      {
        OFFSET 19.8 3.7 4.3
        CHANNELS 3 Zrotation Xrotation Yrotation
        JOINT LeftArm
        {
          OFFSET 8 0 0
          CHANNELS 3 Zrotation Xrotation Yrotation
          JOINT LeftForeArm
          {
            OFFSET 15.2 0 0
            CHANNELS 3 Zrotation Xrotation Yrotation
            JOINT LeftHand
            {
              OFFSET 17.8 0 0
              CHANNELS 3 Zrotation Xrotation Yrotation
              End Site
              {
                OFFSET 7.2 0 0
              }
            }
          }
        }
      }
      JOINT RightShoulder
      {
        OFFSET 19.8 3.7 -4.3
        CHANNELS 3 Zrotation Xrotation Yrotation
        JOINT RightArm
        {
          OFFSET 8 0 0.151654
          CHANNELS 3 Zrotation Xrotation Yrotation
          JOINT RightForeArm
          {
            OFFSET 15.2 0 0
            CHANNELS 3 Zrotation Xrotation Yrotation
            JOINT RightHand
            {
              OFFSET 17.8 0 0
              CHANNELS 3 Zrotation Xrotation Yrotation
              End Site
              {
                OFFSET 7.2 0 0
              }
            }
          }
        }
      }
    }
  }
  JOINT LeftUpLeg
  {
    OFFSET 5.98425 -7.666 4.78879
    CHANNELS 3 Zrotation Xrotation Yrotation
    JOINT LeftLeg
    {
      OFFSET 16 0 0
      CHANNELS 3 Zrotation Xrotation Yrotation
      JOINT LeftFoot
      {
        OFFSET 18 0 0
        CHANNELS 3 Zrotation Xrotation Yrotation
        End Site
        {
          OFFSET 0 -10.8 0
        }
      }
    }
  }
  JOINT RightUpLeg
  {
    OFFSET 5.98425 -7.66598 -4.78879
    CHANNELS 3 Zrotation Xrotation Yrotation
    JOINT RightLeg
    {
      OFFSET 16 0 0
      CHANNELS 3 Zrotation Xrotation Yrotation
      JOINT RightFoot
      {
        OFFSET 18 0 0
        CHANNELS 3 Zrotation Xrotation Yrotation
        End Site
        {
          OFFSET 0 -10.8 0
        }
      }
    }
  }
  JOINT Tail
  {
    OFFSET 6.83696 -0.722574 0
    CHANNELS 3 Zrotation Xrotation Yrotation
    JOINT Tail1
    {
      OFFSET 12 0 0
      CHANNELS 3 Zrotation Xrotation Yrotation
      End Site
      {
        OFFSET 12 0 0
      }
    }
  }
}
MOTION
Frames:	8
Frame Time:	0.0166667
12.61 7.84393 -500.057 170.323 -81.3584 -93.8479 -138.169 -2.8 -17.2922 12.8149 3.63051 20.5434 31.556 -21.7772 44.3526 -79.9768 38.1262 113.766 -111.578 -39.6578 -135.515 70.9869 -67.2433 -160.747 -80.0309 7.3294 1.70129 10.0833 -0.357866 -13.6944 78.2279 -26.2422 46.354 100.946 -67.0539 11.6285 -83.0531 -11.863 -5.33653 2.22674 0.462788 -6.74042 -155.692 73.7905 28.261 164.329 55.4555 1.3079 -34.742 -3.69879 25.7191 -134.466 -33.9138 4.90136 160.699 -41.1478 -4.13734 -21.781 -5.91683 -27.8734 77.9242 11.8002 10.1999 12.7379 -20.7811 3.61928 
12.6123 7.82179 -500.06 169.953 -81.3158 -94.239 -138.223 -2.89507 -17.3978 12.8993 3.56728 20.8283 31.5748 -21.5307 44.5915 -79.6798 38.7372 113.463 -111.584 -39.6362 -135.566 70.6393 -67.0592 -161.14 -80.2009 7.16028 1.85029 10.1521 -0.375647 -13.7554 78.3037 -26.183 46.5163 100.28 -67.4214 11.1521 -82.9825 -11.6982 -5.29764 2.33255 0.43346 -6.63238 -156.77 73.3889 29.4087 164.464 55.1499 1.26336 -34.3985 -3.62548 26.1878 -134.239 -33.5779 4.92499 160.713 -40.412 -4.08425 -21.934 -5.85485 -27.516 78.0427 11.7589 10.2056 12.6844 -20.7058 3.51327 
12.5935 7.77899 -500.06 170.014 -81.2476 -94.2184 -138.315 -2.98066 -17.6771 13.1533 3.60201 21.3672 31.3218 -21.4378 44.3228 -79.7141 38.7646 113.753 -111.513 -39.5982 -135.459 70.2899 -66.7812 -161.581 -80.4483 6.82839 2.15093 10.2312 -0.400098 -13.7541 78.0979 -26.4722 46.4307 100.296 -67.4328 11.4126 -83.282 -11.4959 -5.51934 2.41144 0.463082 -6.86965 -157.938 73.8884 30.8489 164.414 55.8045 1.2982 -34.7951 -3.70542 26.3783 -134.123 -34.4165 4.61528 160.514 -41.2314 -4.20117 -22.2841 -5.78329 -27.7477 78.1177 11.7569 10.3214 12.704 -20.6937 3.50775 
12.6163 7.75698 -500.092 170.724 -81.0663 -93.456 -138.323 -2.91562 -17.7284 13.4782 3.74101 21.5142 31.3724 -21.3198 44.5319 -79.6512 39.0792 113.527 -111.763 -39.8743 -135.591 70.3583 -66.6624 -161.188 -80.4882 6.7178 2.18932 10.1745 -0.385796 -13.9848 78.0171 -26.7315 46.7918 99.6308 -67.8989 11.0697 -83.3266 -11.0248 -5.74676 2.50652 0.42995 -6.71001 -157.017 73.8467 30.1094 164.388 55.532 1.30382 -34.8323 -3.7223 26.2125 -134.331 -34.0719 4.48102 160.601 -40.9575 -4.15519 -21.877 -5.87906 -27.7468 78.359 11.5982 10.4642 12.686 -20.6179 3.43851 
12.6703 7.73251 -500.138 172.245 -80.834 -91.8921 -137.933 -2.93595 -17.7442 13.1908 3.7315 21.6071 31.7052 -21.1662 44.3944 -80.045 38.6372 113.914 -111.593 -39.6914 -135.494 69.6954 -66.3748 -161.736 -80.5328 6.75501 2.17659 10.1156 -0.391789 -13.8721 78.0572 -26.6438 46.7245 99.6184 -67.8587 11.3634 -83.4457 -10.9113 -6.00699 2.33441 0.472434 -6.82822 -155.674 73.8661 28.9416 164.417 55.2387 1.30251 -34.8759 -3.73443 25.8014 -134.816 -33.2253 4.40447 160.802 -40.1131 -4.0387 -20.9574 -6.08904 -27.6206 78.7273 11.3077 10.807 12.5821 -20.4444 3.29677 
12.6806 7.72585 -500.153 173.108 -80.8641 -91.0225 -138.048 -2.93671 -17.8208 13.3923 3.77021 21.8308 31.8095 -21.1032 44.463 -79.8662 38.9231 113.674 -111.524 -39.674 -135.355 69.1306 -66.078 -162.201 -80.7793 6.45275 2.35595 10.144 -0.393909 -14.0439 77.884 -26.8198 46.4719 99.5877 -67.9323 11.5228 -83.5675 -10.6732 -6.17074 2.25447 0.453992 -6.48952 -156.98 73.9567 30.3149 164.496 55.3821 1.28267 -34.6919 -3.67755 26.1483 -134.796 -33.36 4.41284 160.659 -40.2408 -4.06217 -20.916 -6.07747 -27.5108 78.6253 11.2393 11.1592 12.5484 -20.4867 3.19778 
12.6751 7.7425 -500.158 174.035 -81.013 -90.1045 -138.287 -2.92156 -17.9433 13.6711 3.84253 22.0447 32.0812 -21.1655 44.523 -79.9596 38.5067 113.811 -111.569 -39.791 -135.261 68.8624 -65.8061 -162.426 -80.8578 6.32012 2.63415 9.92256 -0.401864 -13.8459 77.8605 -26.9345 46.6808 98.9262 -68.2303 10.8128 -83.5535 -10.7433 -6.18761 1.99762 0.469834 -6.39762 -157.772 74.3 31.074 164.448 55.6454 1.28661 -34.6901 -3.65726 26.1731 -134.997 -33.9635 4.41819 160.435 -41.0471 -4.15076 -20.7646 -6.09978 -27.6313 78.1734 11.4037 11.4278 12.721 -20.7556 3.29469 
12.7362 7.77113 -500.2 175.472 -81.0309 -88.6173 -138.289 -2.7969 -17.919 13.7749 3.97818 22.0693 32.2812 -21.3569 44.7946 -79.4635 38.193 113.852 -111.692 -39.9214 -135.336 68.7802 -65.5066 -162.514 -80.9259 5.84223 3.0127 9.89684 -0.415859 -13.9808 77.9676 -26.858 46.9231 98.5205 -68.0896 10.3653 -83.7305 -10.544 -6.32963 1.90986 0.452866 -6.19626 -156.3 74.2954 29.2985 164.394 55.4015 1.2992 -34.5639 -3.63073 25.7631 -135.219 -32.6555 4.8128 160.54 -40.039 -4.01034 -20.0255 -6.21357 -27.1282 77.9858 11.3848 11.6783 12.8756 -20.8731 3.35684 
